<svg xmlns="http://www.w3.org/2000/svg" width="930" height="300" viewBox="0 0 930 300">
<g>
<path d="M 335.00 246.99 C265.23,249.69 211.93,244.76 171.12,231.84 C152.21,225.85 135.32,217.23 144.75,218.37 C147.60,218.72 158.00,221.63 161.50,223.07 C162.60,223.52 165.30,224.10 167.50,224.36 C169.70,224.62 173.52,225.33 176.00,225.94 C178.48,226.55 183.20,227.46 186.50,227.98 C189.80,228.49 195.43,229.41 199.00,230.01 C215.28,232.76 229.63,233.40 276.00,233.42 C321.94,233.44 329.90,233.13 366.50,229.93 C372.00,229.45 381.79,228.76 388.25,228.39 C394.71,228.03 400.00,227.38 400.00,226.96 C400.00,226.54 403.94,225.96 408.75,225.67 C413.56,225.38 421.77,224.64 427.00,224.03 C432.23,223.42 440.55,222.53 445.50,222.05 C456.14,221.02 468.34,219.40 476.00,218.00 C479.02,217.44 488.28,216.35 496.56,215.56 C504.85,214.77 512.72,213.87 514.06,213.55 C516.67,212.92 521.04,212.45 533.00,211.49 C537.12,211.16 544.10,210.28 548.50,209.53 C561.16,207.38 572.55,205.98 585.50,204.99 C592.10,204.49 602.45,203.38 608.50,202.52 C614.55,201.66 626.92,200.29 636.00,199.48 C651.31,198.12 656.97,197.53 678.55,195.09 C682.97,194.59 692.42,193.89 699.55,193.53 C706.67,193.18 721.50,192.23 732.50,191.43 C747.18,190.35 764.74,190.06 798.50,190.33 C841.14,190.67 855.29,191.36 873.50,193.99 C877.35,194.54 883.42,195.26 887.00,195.58 C890.58,195.90 894.40,196.53 895.50,196.99 C896.60,197.44 898.40,198.15 899.50,198.56 C903.41,200.02 898.15,200.26 888.59,199.07 C857.43,195.16 771.06,196.33 733.00,201.17 C724.47,202.25 716.65,203.13 715.61,203.12 C711.26,203.08 680.77,206.10 672.00,207.43 C666.78,208.23 660.03,209.09 657.00,209.34 C653.97,209.59 646.55,210.52 640.50,211.42 C634.45,212.31 624.33,213.69 618.00,214.50 C611.67,215.30 595.92,217.58 583.00,219.56 C570.08,221.54 556.12,223.46 552.00,223.83 C547.88,224.20 543.84,224.93 543.03,225.45 C541.22,226.61 539.39,226.87 495.00,232.41 C420.12,241.75 383.03,245.13 335.00,246.99 ZM 315.80 203.64 C312.12,204.92 306.01,206.26 302.22,206.62 C296.33,207.16 295.33,207.03 295.33,205.67 C295.33,203.98 297.11,202.92 300.76,202.44 C305.15,201.85 317.34,194.42 324.03,188.24 C332.53,180.40 337.45,173.04 341.64,161.92 C348.89,142.64 347.89,124.22 338.69,107.77 C334.51,100.29 332.63,98.46 328.18,97.52 C324.89,96.82 322.75,93.84 323.71,91.32 C324.24,89.94 316.73,84.22 313.27,83.35 C311.97,83.03 308.87,83.54 306.37,84.49 C300.32,86.81 290.35,86.22 288.35,83.43 C283.85,77.17 281.29,76.63 271.68,79.94 C268.58,81.01 265.81,81.50 265.53,81.05 C265.25,80.59 267.91,77.51 271.45,74.20 C277.43,68.60 278.11,68.24 281.21,68.93 C283.04,69.35 287.02,71.06 290.04,72.75 C294.20,75.06 297.37,75.97 303.02,76.47 C310.66,77.14 318.13,78.93 322.03,81.01 C323.80,81.96 324.10,82.76 323.60,85.26 C323.04,88.05 323.55,88.85 329.24,94.10 C334.93,99.34 335.58,99.69 336.40,97.93 C336.91,96.85 338.31,96.00 339.59,96.00 C340.85,96.00 342.16,95.55 342.50,95.00 C343.53,93.33 346.44,93.88 347.77,96.00 C349.27,98.41 354.00,98.75 354.00,96.45 C354.00,93.96 346.44,83.51 342.29,80.26 C340.21,78.63 334.12,74.94 328.76,72.06 C323.40,69.19 318.77,66.43 318.46,65.93 C316.53,62.81 337.24,70.47 349.34,77.36 C359.12,82.93 363.71,87.53 369.95,98.03 C374.88,106.33 376.84,111.56 377.58,118.42 C377.88,121.21 378.29,124.00 378.48,124.60 C378.88,125.89 376.56,143.68 375.23,149.50 C373.96,155.02 367.67,167.65 363.73,172.60 C354.22,184.53 335.15,196.87 315.80,203.64 ZM 208.97 201.25 C209.01,202.40 199.23,201.90 192.50,200.41 C182.72,198.25 158.40,195.02 141.06,193.57 C132.16,192.82 124.61,191.94 124.27,191.61 C123.94,191.27 125.09,191.00 126.83,191.00 C128.96,191.00 130.00,190.51 130.00,189.52 C130.00,188.71 131.24,187.25 132.75,186.29 C136.93,183.61 137.47,182.81 137.82,178.82 C138.33,172.91 136.73,171.01 131.21,170.96 C128.62,170.93 124.11,170.36 121.19,169.68 L 115.89 168.44 L 121.19 166.57 C131.91,162.80 146.85,156.07 153.44,152.04 C159.80,148.15 160.28,148.01 161.52,149.70 C162.25,150.69 163.08,152.67 163.37,154.11 C164.19,158.19 169.78,169.81 172.78,173.70 C177.47,179.75 194.91,193.73 202.10,197.20 C205.87,199.02 208.96,200.84 208.97,201.25 ZM 341.17 187.39 C334.75,194.06 337.00,193.40 346.75,185.73 C353.90,180.11 363.06,169.76 366.02,163.96 C368.32,159.46 368.55,154.54 366.68,150.09 C366.14,148.81 365.84,147.91 365.44,147.86 C364.75,147.78 363.76,150.17 360.78,157.40 C360.51,158.06 360.22,158.76 359.91,159.50 C354.83,171.78 351.70,176.44 341.17,187.39 ZM 147.93 178.20 C150.36,180.90 152.00,181.04 152.00,178.55 C152.00,177.81 152.79,176.91 153.75,176.54 C155.32,175.93 155.34,175.74 153.94,174.68 C153.08,174.03 152.06,172.66 151.68,171.64 C151.03,169.93 150.75,170.01 148.24,172.64 L 145.50 175.50 Z" fill="rgb(242,173,71)"/>
<path d="M 290.02 72.73 C292.15,73.92 294.02,74.74 296.09,75.32 C294.02,74.74 292.16,73.92 290.04,72.75 C287.02,71.06 283.04,69.35 281.21,68.93 C278.11,68.24 277.43,68.60 271.45,74.20 C267.91,77.51 265.25,80.59 265.53,81.05 C265.81,81.50 268.58,81.01 271.68,79.94 C281.29,76.63 283.85,77.17 288.35,83.43 C290.35,86.22 300.32,86.81 306.37,84.49 C308.87,83.54 311.97,83.03 313.27,83.35 C316.73,84.22 324.24,89.94 323.71,91.32 C322.75,93.84 324.89,96.82 328.18,97.52 C332.63,98.46 334.51,100.29 338.69,107.77 C347.89,124.22 348.89,142.64 341.64,161.92 C337.45,173.04 332.53,180.40 324.03,188.24 C317.34,194.42 305.15,201.85 300.76,202.44 C298.89,202.68 297.51,203.08 296.61,203.64 C296.67,203.59 296.73,203.54 296.79,203.49 C297.79,202.69 297.33,201.74 294.70,199.19 L 291.32 195.92 L 282.41 198.58 C269.96,202.29 251.72,202.50 238.50,199.08 C229.77,196.83 218.58,191.89 214.50,188.50 L 212.50 186.84 L 214.50 187.54 C223.76,190.79 226.77,191.28 240.06,191.74 C258.11,192.36 266.12,190.62 282.77,182.46 C291.76,178.07 295.60,175.48 301.69,169.72 C315.52,156.64 321.31,144.40 321.43,128.00 C321.49,120.65 321.13,118.82 318.84,114.50 C315.27,107.77 311.81,104.71 303.50,100.88 C297.41,98.08 295.40,97.66 288.00,97.61 C283.33,97.59 277.83,98.14 275.80,98.84 C272.38,100.03 266.97,104.99 265.68,108.15 C264.87,110.12 262.21,106.51 260.92,101.68 C259.88,97.86 259.84,97.83 257.83,99.65 C256.15,101.18 254.13,101.50 246.31,101.50 L 236.83 101.50 L 237.45 105.38 C237.79,107.51 239.29,111.79 240.78,114.88 C247.67,129.13 262.95,136.64 273.79,131.11 C278.67,128.62 279.57,128.65 279.16,131.30 C278.25,137.17 268.34,148.71 260.96,152.49 C258.46,153.78 253.86,155.57 250.73,156.48 C247.60,157.39 245.15,158.65 245.27,159.30 C245.40,159.94 243.70,161.37 241.50,162.48 C238.21,164.14 235.55,164.50 226.50,164.50 C215.61,164.50 215.41,164.46 206.65,160.25 L 197.80 156.00 L 194.89 159.11 C191.49,162.76 190.77,162.43 186.09,155.15 C180.69,146.72 178.00,137.94 178.01,128.73 C178.02,119.84 179.29,109.75 181.17,103.71 C183.47,96.31 187.25,100.71 189.44,113.34 C190.69,120.54 193.29,127.00 194.94,127.00 C195.43,127.00 197.87,129.87 200.37,133.37 C206.13,141.44 213.59,148.16 220.59,151.59 C227.78,155.10 228.60,154.09 221.72,150.21 C214.78,146.29 205.90,137.17 202.10,130.04 C194.58,115.93 192.39,96.09 196.90,83.00 C199.53,75.36 206.50,63.34 209.10,61.95 C211.07,60.89 222.00,61.80 222.00,63.01 C222.00,63.42 220.90,66.25 219.55,69.29 C214.01,81.81 212.82,91.67 215.57,102.28 C217.12,108.25 221.20,117.39 222.75,118.34 C223.18,118.61 223.36,115.54 223.16,111.51 C222.84,105.10 223.08,103.79 225.15,100.89 C226.44,99.06 228.40,96.80 229.50,95.86 C231.33,94.30 231.65,94.29 233.27,95.76 C235.64,97.89 236.49,96.73 237.85,89.50 C240.36,76.18 250.65,61.74 262.33,55.13 C276.28,47.25 293.34,43.82 308.22,45.91 C313.32,46.63 318.38,47.69 319.46,48.26 C322.47,49.85 325.00,53.36 323.93,54.45 C323.42,54.97 323.00,56.16 323.00,57.09 C323.00,59.48 320.99,60.00 311.67,60.02 C301.67,60.04 292.44,61.91 284.50,65.54 C278.58,68.24 278.54,68.28 281.50,68.96 C283.15,69.34 286.98,71.04 290.02,72.73 ZM 129.02 163.60 C126.29,164.70 123.63,165.71 121.19,166.57 L 115.89 168.44 L 121.19 169.68 C124.11,170.36 128.62,170.93 131.21,170.96 C136.73,171.01 138.33,172.91 137.82,178.82 C137.47,182.81 136.93,183.61 132.75,186.29 C131.24,187.25 130.00,188.71 130.00,189.52 C130.00,190.51 128.96,191.00 126.83,191.00 C125.09,191.00 123.94,191.27 124.27,191.61 C124.48,191.82 127.59,192.25 132.10,192.72 C102.61,190.87 47.11,191.04 29.80,193.25 C22.26,194.21 14.16,194.96 11.80,194.91 C7.05,194.82 14.70,192.91 43.50,186.98 C78.93,179.69 107.88,171.76 129.02,163.60 ZM 341.17 187.39 C351.70,176.44 354.83,171.78 359.91,159.50 C360.22,158.76 360.51,158.06 360.78,157.40 C363.76,150.17 364.75,147.78 365.44,147.86 C365.84,147.91 366.14,148.81 366.68,150.09 C368.55,154.54 368.32,159.46 366.02,163.96 C363.06,169.76 353.90,180.11 346.75,185.73 C337.00,193.40 334.75,194.06 341.17,187.39 ZM 315.80 203.64 C310.32,205.55 303.07,206.81 298.79,206.88 C299.69,206.84 300.81,206.75 302.22,206.62 C306.01,206.26 312.12,204.92 315.80,203.64 ZM 295.34 205.45 C295.34,205.52 295.33,205.60 295.33,205.67 C295.33,206.05 295.41,206.34 295.66,206.54 C295.31,206.38 295.14,206.17 295.20,205.90 C295.23,205.76 295.28,205.61 295.34,205.45 ZM 177.55 197.83 C183.73,198.74 189.03,199.65 192.50,200.41 C195.61,201.10 199.36,201.58 202.51,201.78 C199.36,201.58 195.61,201.10 192.50,200.42 C189.06,199.66 183.79,198.76 177.55,197.83 Z" fill="rgb(197,51,79)"/>
<path d="M 315.80 203.64 C335.15,196.87 354.22,184.53 363.73,172.60 C367.67,167.65 373.96,155.02 375.23,149.50 C376.56,143.68 378.88,125.89 378.48,124.60 C378.29,124.00 377.88,121.21 377.58,118.42 C376.84,111.56 374.88,106.33 369.95,98.03 C363.71,87.53 359.12,82.93 349.34,77.36 C337.24,70.47 316.53,62.81 318.46,65.93 C318.77,66.43 323.40,69.19 328.76,72.06 C334.12,74.94 340.21,78.63 342.29,80.26 C346.44,83.51 354.00,93.96 354.00,96.45 C354.00,98.75 349.27,98.41 347.77,96.00 C346.44,93.88 343.53,93.33 342.50,95.00 C342.16,95.55 340.85,96.00 339.59,96.00 C338.31,96.00 336.91,96.85 336.40,97.93 C335.58,99.69 334.93,99.34 329.24,94.10 C323.55,88.85 323.04,88.05 323.60,85.26 C324.10,82.76 323.80,81.96 322.03,81.01 C318.13,78.93 310.66,77.14 303.02,76.47 C300.25,76.22 298.08,75.88 296.09,75.32 C294.02,74.74 292.15,73.92 290.02,72.73 C286.98,71.04 283.15,69.34 281.50,68.96 C278.54,68.28 278.58,68.24 284.50,65.54 C292.44,61.91 301.67,60.04 311.67,60.02 C320.99,60.00 323.00,59.48 323.00,57.09 C323.00,56.16 323.42,54.97 323.93,54.45 C325.00,53.36 322.47,49.85 319.46,48.26 C318.38,47.69 313.32,46.63 308.22,45.91 C293.34,43.82 276.28,47.25 262.33,55.13 C250.65,61.74 240.36,76.18 237.85,89.50 C236.49,96.73 235.64,97.89 233.27,95.76 C231.65,94.29 231.33,94.30 229.50,95.86 C228.40,96.80 226.44,99.06 225.15,100.89 C223.08,103.79 222.84,105.10 223.16,111.51 C223.36,115.54 223.18,118.61 222.75,118.34 C221.20,117.39 217.12,108.25 215.57,102.28 C212.82,91.67 214.01,81.81 219.55,69.29 C220.90,66.25 222.00,63.42 222.00,63.01 C222.00,61.80 211.07,60.89 209.10,61.95 C206.50,63.34 199.53,75.36 196.90,83.00 C192.39,96.09 194.58,115.93 202.10,130.04 C205.90,137.17 214.78,146.29 221.72,150.21 C228.60,154.09 227.78,155.10 220.59,151.59 C213.59,148.16 206.13,141.44 200.37,133.37 C197.87,129.87 195.43,127.00 194.94,127.00 C193.29,127.00 190.69,120.54 189.44,113.34 C187.25,100.71 183.47,96.31 181.17,103.71 C180.26,106.65 179.49,110.54 178.93,114.78 C179.08,113.55 179.24,112.27 179.41,110.94 C181.40,95.86 188.31,81.63 198.13,72.39 C200.53,70.12 204.04,66.35 205.91,64.01 C209.27,59.82 223.03,50.00 225.54,50.00 C226.25,50.00 226.98,49.65 227.17,49.22 C227.56,48.30 239.24,43.00 240.88,43.00 C243.44,43.00 241.69,46.06 237.25,49.34 C231.73,53.42 224.54,60.76 223.70,63.17 C223.10,64.90 224.75,66.00 227.96,66.00 C228.95,66.00 230.32,66.68 231.00,67.50 C231.68,68.32 232.88,69.00 233.65,69.00 C235.16,69.00 240.72,63.18 242.69,59.54 C243.35,58.33 246.69,55.85 250.11,54.02 C256.05,50.86 256.54,50.76 261.00,51.90 C265.02,52.93 266.28,52.85 270.08,51.30 C276.35,48.74 277.28,47.97 279.28,43.65 C280.26,41.53 281.95,39.57 283.02,39.28 C284.10,39.00 284.73,38.37 284.43,37.89 C282.98,35.54 309.91,39.63 312.50,42.15 C313.15,42.78 312.80,42.87 311.50,42.40 C309.72,41.76 309.76,41.97 311.92,44.34 C313.26,45.80 315.06,47.01 315.92,47.02 C317.30,47.04 326.89,50.25 332.41,52.55 C333.79,53.12 334.12,53.00 333.58,52.13 C333.17,51.47 334.92,52.40 337.47,54.19 C343.50,58.44 341.68,59.00 334.61,55.06 C328.53,51.68 326.49,51.24 327.36,53.50 C327.68,54.33 327.51,55.00 326.99,55.00 C325.61,55.00 322.83,60.78 324.02,61.17 C324.57,61.35 319.05,61.50 311.76,61.50 C304.10,61.50 298.36,61.91 298.17,62.47 C297.99,63.00 299.65,64.10 301.85,64.90 C305.27,66.15 306.47,66.17 309.95,65.02 C315.89,63.06 333.87,65.61 340.67,69.38 C343.33,70.85 348.29,73.43 351.70,75.10 C368.65,83.42 380.01,104.74 379.99,128.21 C379.98,149.53 373.63,164.44 357.94,180.00 C344.74,193.08 327.61,202.31 307.72,207.04 C294.26,210.24 263.28,210.61 260.27,207.60 C259.94,207.27 263.96,207.00 269.20,207.00 C278.10,207.00 294.10,204.86 296.92,203.37 C296.88,203.41 296.84,203.45 296.79,203.49 C296.73,203.54 296.67,203.59 296.61,203.64 C295.83,204.12 295.41,204.73 295.34,205.45 C295.28,205.61 295.23,205.76 295.20,205.90 C295.14,206.17 295.31,206.38 295.66,206.54 C296.08,206.88 296.98,206.97 298.79,206.88 C303.07,206.81 310.32,205.55 315.80,203.64 ZM 234.00 180.00 C235.38,180.44 239.33,180.85 242.79,180.90 C249.73,181.01 254.48,179.15 260.28,174.06 C262.11,172.45 264.92,170.81 266.53,170.40 C279.28,167.20 288.47,159.31 291.30,149.15 C292.40,145.20 294.30,141.62 296.88,138.63 C303.87,130.56 303.68,120.21 296.34,108.86 C293.90,105.08 291.25,102.00 290.45,102.00 C289.65,102.00 289.00,101.65 289.00,101.22 C289.00,100.31 285.20,99.66 279.48,99.59 C274.52,99.53 269.90,102.59 267.58,107.48 C266.66,109.42 265.45,111.00 264.89,111.00 C264.33,111.00 262.89,108.74 261.69,105.98 C259.88,101.83 259.15,101.07 257.50,101.56 C256.40,101.89 251.96,102.41 247.64,102.71 L 239.77 103.27 L 240.24 107.43 C241.23,116.22 248.22,125.80 256.44,129.63 C262.89,132.63 271.15,132.82 275.66,130.07 C279.32,127.84 280.06,128.17 279.08,131.72 C279.11,131.57 279.14,131.43 279.16,131.30 C279.57,128.65 278.67,128.62 273.79,131.11 C262.95,136.64 247.67,129.13 240.78,114.88 C239.29,111.79 237.79,107.51 237.45,105.38 L 236.83 101.50 L 246.31 101.50 C254.13,101.50 256.15,101.18 257.83,99.65 C259.84,97.83 259.88,97.86 260.92,101.68 C262.21,106.51 264.87,110.12 265.68,108.15 C266.97,104.99 272.38,100.03 275.80,98.84 C277.83,98.14 283.33,97.59 288.00,97.61 C295.40,97.66 297.41,98.08 303.50,100.88 C311.81,104.71 315.27,107.77 318.84,114.50 C321.13,118.82 321.49,120.65 321.43,128.00 C321.31,144.40 315.52,156.64 301.69,169.72 C295.60,175.48 291.76,178.07 282.77,182.46 C266.12,190.62 258.11,192.36 240.06,191.74 C226.77,191.28 223.76,190.79 214.50,187.54 L 212.50 186.84 L 214.50 188.50 C218.01,191.42 226.78,195.48 234.72,197.99 C216.99,192.47 199.35,180.99 194.14,171.26 C192.60,168.38 192.66,165.69 194.25,166.59 C194.94,166.97 193.66,165.31 191.40,162.89 C188.08,159.33 185.62,155.55 183.07,149.83 C183.96,151.62 184.97,153.39 186.09,155.15 C190.77,162.43 191.49,162.76 194.89,159.11 L 197.80 156.00 L 206.65 160.25 C208.83,161.30 210.49,162.09 211.90,162.68 L 211.83 162.66 C207.62,161.27 202.84,159.45 201.22,158.61 C197.86,156.88 195.68,157.88 194.56,161.67 C194.04,163.42 194.77,164.50 198.29,167.18 C200.69,169.02 202.49,171.03 202.28,171.65 C201.90,172.80 207.91,175.42 208.83,174.50 C209.11,174.23 208.73,174.00 208.00,174.00 C207.27,174.00 206.92,173.75 207.23,173.44 C207.53,173.13 209.50,173.60 211.60,174.48 C213.70,175.36 218.06,176.35 221.28,176.69 C224.98,177.07 226.65,177.61 225.82,178.13 C224.96,178.68 225.71,179.01 228.00,179.08 C229.93,179.15 232.62,179.56 234.00,180.00 ZM 930.00 101.50 L 930.00 253.07 C930.00,209.24 929.88,206.10 928.25,205.60 C922.20,203.77 892.66,200.54 868.00,199.03 C829.46,196.65 767.05,198.75 718.50,204.04 C713.55,204.58 705.00,205.51 699.50,206.10 C681.44,208.03 633.92,213.90 612.00,216.90 C589.44,219.99 556.82,224.41 526.50,228.49 C506.58,231.17 466.14,236.10 444.50,238.47 C440.32,238.93 436.18,239.37 432.09,239.80 C450.17,237.87 470.57,235.45 495.00,232.41 C539.39,226.87 541.22,226.61 543.03,225.45 C543.84,224.93 547.88,224.20 552.00,223.83 C556.12,223.46 570.08,221.54 583.00,219.56 C595.92,217.58 611.67,215.30 618.00,214.50 C624.33,213.69 634.45,212.31 640.50,211.42 C646.55,210.52 653.97,209.59 657.00,209.34 C660.03,209.09 666.78,208.23 672.00,207.43 C680.77,206.10 711.26,203.08 715.61,203.12 C716.65,203.13 724.47,202.25 733.00,201.17 C771.06,196.33 857.43,195.16 888.59,199.07 C898.15,200.26 903.41,200.02 899.50,198.56 C898.40,198.15 896.60,197.44 895.50,196.99 C894.40,196.53 890.58,195.90 887.00,195.58 C883.42,195.26 877.35,194.54 873.50,193.99 C855.29,191.36 841.14,190.67 798.50,190.33 C764.74,190.06 747.18,190.35 732.50,191.43 C721.50,192.23 706.67,193.18 699.55,193.53 C692.42,193.89 682.97,194.59 678.55,195.09 C656.97,197.53 651.31,198.12 636.00,199.48 C626.92,200.29 614.55,201.66 608.50,202.52 C602.45,203.38 592.10,204.49 585.50,204.99 C572.55,205.98 561.16,207.38 548.50,209.53 C544.10,210.28 537.12,211.16 533.00,211.49 C521.04,212.45 516.67,212.92 514.06,213.55 C512.72,213.87 504.85,214.77 496.56,215.56 C488.28,216.35 479.02,217.44 476.00,218.00 C468.34,219.40 456.14,221.02 445.50,222.05 C442.71,222.32 438.85,222.72 435.08,223.13 C437.68,222.75 439.49,222.38 440.37,222.05 C441.79,221.51 447.80,220.78 453.73,220.43 C459.65,220.08 468.55,219.13 473.50,218.31 C478.45,217.49 485.65,216.44 489.50,215.98 C493.35,215.51 498.98,214.67 502.00,214.10 C505.02,213.53 529.10,210.36 555.50,207.06 C678.17,191.69 737.22,187.24 804.00,188.30 C851.94,189.07 870.93,191.01 910.09,199.14 C920.32,201.26 928.98,203.00 929.34,203.00 C929.71,203.00 930.00,157.32 930.00,101.50 ZM 208.97 201.25 C208.96,200.84 205.87,199.02 202.10,197.20 C194.91,193.73 177.47,179.75 172.78,173.70 C169.86,169.93 164.51,158.85 163.45,154.48 C163.70,155.21 163.97,156.01 164.28,156.89 C170.79,175.94 192.58,193.90 220.95,203.61 C233.00,207.73 227.70,207.91 209.80,203.99 C204.70,202.87 199.80,201.85 195.03,200.91 C197.52,201.33 200.18,201.63 202.51,201.78 C202.94,201.80 203.37,201.83 203.78,201.84 L 203.81 201.84 C206.82,201.97 208.99,201.79 208.97,201.25 ZM 201.29 239.49 C176.15,234.54 154.82,227.34 136.50,217.82 C126.16,212.45 123.73,209.16 133.13,213.26 C136.08,214.55 143.23,217.12 149.00,218.96 C151.33,219.71 153.64,220.46 155.64,221.11 C151.43,219.85 146.56,218.59 144.75,218.37 C135.32,217.23 152.21,225.85 171.12,231.84 C180.50,234.81 190.54,237.36 201.29,239.49 ZM 147.93 178.20 L 145.50 175.50 L 148.24 172.64 C150.75,170.01 151.03,169.93 151.68,171.64 C152.06,172.66 153.08,174.03 153.94,174.68 C155.34,175.74 155.32,175.93 153.75,176.54 C152.79,176.91 152.00,177.81 152.00,178.55 C152.00,181.04 150.36,180.90 147.93,178.20 ZM 0.00 197.35 L 0.00 98.11 C0.00,186.43 0.16,196.15 1.55,195.62 C2.41,195.29 6.07,194.55 9.69,193.97 C11.94,193.61 15.39,192.95 18.80,192.24 C10.60,194.13 8.92,194.86 11.80,194.91 C13.32,194.94 17.22,194.64 21.82,194.17 C17.65,194.72 13.07,195.39 7.75,196.18 ZM 420.40 224.72 C416.24,225.12 411.81,225.49 408.75,225.67 C403.94,225.96 400.00,226.54 400.00,226.96 C400.00,227.38 394.71,228.03 388.25,228.39 C384.38,228.61 379.31,228.95 374.69,229.29 C378.21,228.89 381.34,228.45 383.03,228.10 C386.07,227.47 395.06,226.53 403.03,226.02 C409.47,225.60 415.33,225.17 420.40,224.72 ZM 149.19 176.73 C150.02,177.73 150.59,177.76 151.68,176.85 C152.90,175.84 152.88,175.45 151.51,174.09 C150.13,172.71 149.81,172.69 149.02,173.97 C148.46,174.88 148.52,175.92 149.19,176.73 ZM 63.13 191.60 C86.00,191.21 113.97,191.58 132.10,192.72 C132.75,192.79 133.44,192.86 134.15,192.93 C119.09,191.99 102.53,191.59 82.50,191.56 C74.99,191.55 68.66,191.56 63.13,191.60 ZM 217.17 164.19 C219.36,164.49 222.03,164.50 226.50,164.50 C229.46,164.50 231.74,164.46 233.57,164.35 C231.96,164.57 230.25,164.73 228.50,164.80 C223.34,165.02 220.49,164.94 217.17,164.19 ZM 382.00 67.00 C382.00,67.55 381.55,68.00 381.00,68.00 C380.45,68.00 380.00,67.55 380.00,67.00 C380.00,66.45 380.45,66.00 381.00,66.00 C381.55,66.00 382.00,66.45 382.00,67.00 ZM 325.86 232.84 C313.25,233.35 299.66,233.43 276.00,233.42 C258.60,233.41 245.70,233.32 235.53,233.06 C260.77,233.60 302.43,233.53 325.86,232.84 ZM 54.14 184.73 C50.66,185.49 47.11,186.24 43.50,186.98 C36.69,188.38 31.06,189.56 26.50,190.54 C31.52,189.41 39.69,187.67 45.86,186.44 C48.64,185.88 51.41,185.31 54.14,184.73 ZM 129.02 163.60 C121.73,166.42 113.51,169.20 104.41,171.95 C114.82,168.78 124.24,165.50 132.42,162.21 C131.28,162.68 130.14,163.15 129.02,163.60 ZM 241.42 162.52 C241.45,162.51 241.47,162.49 241.50,162.48 C243.70,161.37 245.40,159.94 245.27,159.30 C245.49,160.41 243.99,161.56 241.42,162.52 ZM 212.48 231.81 C207.68,231.35 203.41,230.76 199.00,230.01 C201.82,230.49 207.31,231.22 212.48,231.81 ZM 178.10 131.72 C178.33,135.34 178.98,138.89 180.06,142.38 C178.97,139.24 178.32,135.83 178.10,131.72 ZM 278.13 134.38 C276.92,137.14 274.92,139.99 271.74,143.53 C274.49,140.45 276.83,137.16 278.13,134.38 ZM 335.00 246.99 C340.54,246.77 345.94,246.54 351.27,246.27 C340.77,246.82 330.64,247.21 320.85,247.43 C325.49,247.32 330.21,247.17 335.00,246.99 ZM 183.41 198.74 C187.03,199.33 190.10,199.89 192.39,200.39 C189.35,199.81 186.36,199.26 183.41,198.74 ZM 297.28 202.60 C297.04,201.84 296.06,200.52 294.70,199.19 C296.46,200.90 297.25,201.89 297.28,202.60 ZM 258.51 153.63 C256.18,154.70 253.62,155.64 250.73,156.48 C253.00,155.82 256.06,154.69 258.51,153.63 ZM 271.18 144.14 C270.83,144.53 270.46,144.93 270.07,145.33 C268.76,146.73 267.39,147.98 265.95,149.12 C267.74,147.65 269.52,145.94 271.18,144.14 ZM 241.03 199.68 C245.99,200.75 251.51,201.34 257.09,201.48 C251.49,201.35 245.95,200.75 241.03,199.68 ZM 157.92 149.41 C156.88,149.95 155.48,150.79 153.50,152.00 C155.40,150.84 156.82,149.95 157.92,149.41 Z" fill="rgb(234,171,153)"/>
<path d="M 0.00 248.67 L 0.00 197.35 L 7.75 196.18 C36.09,191.93 43.11,191.50 82.50,191.56 C137.49,191.65 166.33,194.46 209.80,203.99 C227.70,207.91 233.00,207.73 220.95,203.61 C192.58,193.90 170.79,175.94 164.28,156.89 C160.92,147.07 161.28,147.24 153.50,152.00 C133.93,163.98 93.57,176.89 45.86,186.44 C38.90,187.83 29.40,189.86 24.74,190.94 C20.09,192.03 13.31,193.39 9.69,193.97 C6.07,194.55 2.41,195.29 1.55,195.62 C0.16,196.15 0.00,186.43 0.00,98.11 L 0.00 0.00 L 465.00 0.00 L 930.00 0.00 L 930.00 101.50 C930.00,157.32 929.71,203.00 929.34,203.00 C928.98,203.00 920.32,201.26 910.09,199.14 C870.93,191.01 851.94,189.07 804.00,188.30 C737.22,187.24 678.17,191.69 555.50,207.06 C529.10,210.36 505.02,213.53 502.00,214.10 C498.98,214.67 493.35,215.51 489.50,215.98 C485.65,216.44 478.45,217.49 473.50,218.31 C468.55,219.13 459.65,220.08 453.73,220.43 C447.80,220.78 441.79,221.51 440.37,222.05 C437.31,223.21 423.03,224.73 403.03,226.02 C395.06,226.53 386.07,227.47 383.03,228.10 C379.99,228.73 372.33,229.64 366.00,230.12 C359.68,230.60 347.75,231.54 339.50,232.21 C320.09,233.80 231.61,233.83 216.50,232.25 C210.45,231.62 202.57,230.62 199.00,230.01 C195.43,229.41 189.80,228.49 186.50,227.98 C183.20,227.46 178.48,226.55 176.00,225.94 C173.52,225.33 169.70,224.62 167.50,224.36 C165.30,224.10 162.60,223.53 161.50,223.10 C160.40,222.67 154.77,220.81 149.00,218.96 C143.23,217.12 136.08,214.55 133.13,213.26 C123.73,209.16 126.16,212.45 136.50,217.82 C196.92,249.20 290.00,255.44 444.50,238.47 C466.14,236.10 506.58,231.17 526.50,228.49 C556.82,224.41 589.44,219.99 612.00,216.90 C633.92,213.90 681.44,208.03 699.50,206.10 C705.00,205.51 713.55,204.58 718.50,204.04 C767.05,198.75 829.46,196.65 868.00,199.03 C892.66,200.54 922.20,203.77 928.25,205.60 C929.88,206.10 930.00,209.24 930.00,253.07 L 930.00 300.00 L 465.00 300.00 L 0.00 300.00 L 0.00 248.67 ZM 307.72 207.04 C327.61,202.31 344.74,193.08 357.94,180.00 C373.63,164.44 379.98,149.53 379.99,128.21 C380.01,104.74 368.65,83.42 351.70,75.10 C348.29,73.43 343.33,70.85 340.67,69.38 C333.87,65.61 315.89,63.06 309.95,65.02 C306.47,66.17 305.27,66.15 301.85,64.90 C299.65,64.10 297.99,63.00 298.17,62.47 C298.36,61.91 304.10,61.50 311.76,61.50 C319.05,61.50 324.57,61.35 324.02,61.17 C322.83,60.78 325.61,55.00 326.99,55.00 C327.51,55.00 327.68,54.33 327.36,53.50 C326.49,51.24 328.53,51.68 334.61,55.06 C341.68,59.00 343.50,58.44 337.47,54.19 C334.92,52.40 333.17,51.47 333.58,52.13 C334.12,53.00 333.79,53.12 332.41,52.55 C326.89,50.25 317.30,47.04 315.92,47.02 C315.06,47.01 313.26,45.80 311.92,44.34 C309.76,41.97 309.72,41.76 311.50,42.40 C312.80,42.87 313.15,42.78 312.50,42.15 C309.91,39.63 282.98,35.54 284.43,37.89 C284.73,38.37 284.10,39.00 283.02,39.28 C281.95,39.57 280.26,41.53 279.28,43.65 C277.28,47.97 276.35,48.74 270.08,51.30 C266.28,52.85 265.02,52.93 261.00,51.90 C256.54,50.76 256.05,50.86 250.11,54.02 C246.69,55.85 243.35,58.33 242.69,59.54 C240.72,63.18 235.16,69.00 233.65,69.00 C232.88,69.00 231.68,68.32 231.00,67.50 C230.32,66.68 228.95,66.00 227.96,66.00 C224.75,66.00 223.10,64.90 223.70,63.17 C224.54,60.76 231.73,53.42 237.25,49.34 C241.69,46.06 243.44,43.00 240.88,43.00 C239.24,43.00 227.56,48.30 227.17,49.22 C226.98,49.65 226.25,50.00 225.54,50.00 C223.03,50.00 209.27,59.82 205.91,64.01 C204.04,66.35 200.53,70.12 198.13,72.39 C188.31,81.63 181.40,95.86 179.41,110.94 C177.29,126.98 177.56,135.78 180.37,143.23 C184.05,152.94 186.95,158.11 191.40,162.89 C193.66,165.31 194.94,166.97 194.25,166.59 C192.66,165.69 192.60,168.38 194.14,171.26 C199.73,181.72 219.69,194.20 238.68,199.12 C251.70,202.50 270.03,202.27 282.41,198.58 L 291.32 195.92 L 294.66 199.16 C296.50,200.94 297.66,202.74 297.25,203.15 C295.76,204.64 278.55,207.00 269.20,207.00 C263.96,207.00 259.94,207.27 260.27,207.60 C263.28,210.61 294.26,210.24 307.72,207.04 ZM 382.00 67.00 C382.00,66.45 381.55,66.00 381.00,66.00 C380.45,66.00 380.00,66.45 380.00,67.00 C380.00,67.55 380.45,68.00 381.00,68.00 C381.55,68.00 382.00,67.55 382.00,67.00 ZM 149.19 176.73 C148.52,175.92 148.46,174.88 149.02,173.97 C149.81,172.69 150.13,172.71 151.51,174.09 C152.88,175.45 152.90,175.84 151.68,176.85 C150.59,177.76 150.02,177.73 149.19,176.73 ZM 234.00 180.00 C232.62,179.56 229.93,179.15 228.00,179.08 C225.71,179.01 224.96,178.68 225.82,178.13 C226.65,177.61 224.98,177.07 221.28,176.69 C218.06,176.35 213.70,175.36 211.60,174.48 C209.50,173.60 207.53,173.13 207.23,173.44 C206.92,173.75 207.27,174.00 208.00,174.00 C208.73,174.00 209.11,174.23 208.83,174.50 C207.91,175.42 201.90,172.80 202.28,171.65 C202.49,171.03 200.69,169.02 198.29,167.18 C194.77,164.50 194.04,163.42 194.56,161.67 C195.68,157.88 197.86,156.88 201.22,158.61 C202.84,159.45 207.62,161.27 211.83,162.66 C218.30,164.79 220.90,165.12 228.50,164.80 C237.74,164.41 245.76,161.78 245.27,159.30 C245.15,158.65 247.60,157.39 250.73,156.48 C259.27,153.99 265.00,150.70 270.07,145.33 C275.29,139.82 277.86,135.97 279.01,131.95 C280.10,128.18 279.39,127.79 275.66,130.07 C271.15,132.82 262.89,132.63 256.44,129.63 C248.22,125.80 241.23,116.22 240.24,107.43 L 239.77 103.27 L 247.64 102.71 C251.96,102.41 256.40,101.89 257.50,101.56 C259.15,101.07 259.88,101.83 261.69,105.98 C262.89,108.74 264.33,111.00 264.89,111.00 C265.45,111.00 266.66,109.42 267.58,107.48 C269.90,102.59 274.52,99.53 279.48,99.59 C285.20,99.66 289.00,100.31 289.00,101.22 C289.00,101.65 289.65,102.00 290.45,102.00 C291.25,102.00 293.90,105.08 296.34,108.86 C303.68,120.21 303.87,130.56 296.88,138.63 C294.30,141.62 292.40,145.20 291.30,149.15 C288.47,159.31 279.28,167.20 266.53,170.40 C264.92,170.81 262.11,172.45 260.28,174.06 C254.48,179.15 249.73,181.01 242.79,180.90 C239.33,180.85 235.38,180.44 234.00,180.00 Z" fill="rgb(253,253,252)"/>
</g>
</svg>